<svg id="Layer_1" data-name="Layer 1" xmlns="http://www.w3.org/2000/svg" viewBox="0 0 748.5 126.75"><defs><style>.cls-1{fill:#fff;fill-rule:evenodd;}</style></defs><title>peekaboo-text</title><path class="cls-1" d="M88.57,41.53q0,19.3-12.76,30.83Q63.69,83.22,44.91,83.22H38.77v33.61L0,119.07V0H45.1Q65.05,0,76.57,10.71q12,11.19,12,30.82h0ZM748.5,80q0,20.76-13.22,33.74t-34.15,13q-19.63,0-33.26-13.55T654.24,80q0-20.28,13.3-33.42t33.74-13.14q20.6,0,33.91,13.06T748.5,80h0Zm-33.09.16a17.57,17.57,0,0,0-2.92-9.79c-2.27-3.43-5.14-5.14-8.6-5.14h-5c-3.35,0-6.16,1.7-8.44,5.14A16.65,16.65,0,0,0,687.34,80a16.91,16.91,0,0,0,3.08,9.79c2.27,3.43,5.08,5.14,8.44,5.14h5c3.46,0,6.33-1.7,8.6-5.14a16.83,16.83,0,0,0,2.92-9.63h0ZM653.8,67.28Q653.8,88,640.58,101t-34.15,13q-19.63,0-33.26-13.54T559.54,67.28q0-20.28,13.3-33.42t33.75-13.14q20.6,0,33.9,13.06t13.3,33.5h0Zm-33.09.16a17.59,17.59,0,0,0-2.92-9.79c-2.28-3.44-5.14-5.14-8.6-5.14h-5c-3.36,0-6.17,1.7-8.44,5.14a16.67,16.67,0,0,0-3.08,9.62,16.94,16.94,0,0,0,3.08,9.79c2.27,3.43,5.08,5.14,8.44,5.14h5c3.46,0,6.33-1.7,8.6-5.14a16.85,16.85,0,0,0,2.92-9.63h0ZM557.6,79.05q0,20.44-13.14,33.66T511,125.94q-23.52,0-36.5-14.14Q462,98.17,462.21,74.46V2.81l35.37-2.43V37.85a35,35,0,0,1,19-5.19q19.63,0,30.83,13.63Q557.6,58.94,557.6,79.05h0Zm-33.91-.24a14.9,14.9,0,0,0-3.6-10.27,12.1,12.1,0,0,0-9.55-4.08,11.81,11.81,0,0,0-9.38,4.16,15,15,0,0,0-3.6,10.19,15,15,0,0,0,3.6,10.2,12,12,0,0,0,9.54,4.16A11.82,11.82,0,0,0,520.1,89a15,15,0,0,0,3.6-10.2h0ZM454.1,111.56H421.33V100.21q-11.52,13-25.14,13-14.12,0-22.79-9.19t-8.68-23.33q0-12.21,8.19-20.33a27.71,27.71,0,0,1,20.36-8.14q9.9,0,23.52,8.43V55.49a10.88,10.88,0,0,0-5.36-9.81,20,20,0,0,0-11.19-2.9,107.1,107.1,0,0,0-26.12,3.57L380,23.29a155.94,155.94,0,0,1,29.69-3.38q19.63,0,31,7.63,13.46,8.88,13.47,27.52v56.51h0Zm-35-30q0-9.09-13.14-9.09a7.38,7.38,0,0,0-5.76,3,9.46,9.46,0,0,0-2.52,6.08,8.54,8.54,0,0,0,3.08,6.73A10.77,10.77,0,0,0,408,91a12.28,12.28,0,0,0,7.63-2.6,8.15,8.15,0,0,0,3.4-6.81h0Zm-54.3,40.81L341.4,74.59l19.3-36.42-35-4.71-17,40.07V0.37l-35,2.43V125.45l35-2.27V78.41l20,47.53,36.18-3.57h0ZM266.45,50.24L221.83,82.53a24.87,24.87,0,0,0,9.25,1.95q9.09,0,20.6-7.46l14.6,24.33Q250.38,114,228.48,114q-20.27,0-34.71-13.14a43.15,43.15,0,0,1-15.09-33.58q0-19.62,12.81-32.93T223.78,21q12.33,0,25.63,8.6,14.12,9.24,17,20.6h0Zm-32.9,2c-2.6-3.06-6.22-4.57-10.87-4.57a12.75,12.75,0,0,0-9.93,4.08A14.55,14.55,0,0,0,209,62a22.34,22.34,0,0,0,1.19,7.33l23.33-17.08h0ZM175,63q-2.92-11.36-17-20.6-13.3-8.6-25.63-8.6-19.47,0-32.29,13.3T87.23,80q0,20.12,15.09,33.58,14.44,13.14,34.72,13.14,21.9,0,37.8-12.65l-14.6-24.33q-11.52,7.46-20.6,7.46a24.88,24.88,0,0,1-9.25-1.95L175,63h0Zm-32.9,2L118.76,82.06a22.38,22.38,0,0,1-1.19-7.33,14.53,14.53,0,0,1,3.73-10.25,12.75,12.75,0,0,1,9.92-4.08c4.65,0,8.27,1.51,10.87,4.57h0ZM55.65,43.88Q55.65,29,43,29H38.77V54.51h4a14.87,14.87,0,0,0,9-2.78A9.08,9.08,0,0,0,55.65,43.88Z"/></svg>