<svg id="Layer_1" data-name="Layer 1" xmlns="http://www.w3.org/2000/svg" viewBox="0 0 375.06 287.39"><defs><style>.cls-1{fill:#fff;}.cls-1,.cls-2,.cls-3,.cls-4,.cls-5{fill-rule:evenodd;}.cls-2{fill:#5a3c29;}.cls-3{fill:#f48d95;}.cls-4{fill:#e1635a;}.cls-5{fill:#bc6837;}</style></defs><title>peekaboo-open-hands</title><path class="cls-1" d="M103.58,109.27S92.85,125.95,80,141.94l11.76-27.12-65,3.48,1.51,17.43a12,12,0,0,1,1.7,2l3.52,5a12,12,0,0,1,3.75-4.37s9.22-5.93,15.9,2.28c3.3,4.06,17.56,24.39,31.15,43.92A14.26,14.26,0,0,1,85.8,182,14,14,0,0,1,105.4,179c2.89,2.14,6.35,5.27,6.93,9.08,1.09,7.22,8.35,58.61,7.79,67.21,15.55,10.73,37.56,23.95,51.24,23.63,17.87-.42,55.59-8.37,83.58-23.57a79,79,0,0,1,.51-9.94,28.51,28.51,0,0,0,.42,6.89c3,15.52,23.12,29.05,23.12,29.05L306.67,279l23.51-28.92s36.38-46.69,37.88-51.75-0.37-12.56-4.12-13.13-6.56-.94-6.56-0.94,11-12.8,7.13-16.87-4.31-9.75-8.44-9.75,8.25-20.63,3.75-21.75-18.37,6.37-20.81,9.19-6-11.44-12.56-6.56c-3.94,2.93-23.21,31.58-38.56,53.58l0-.3a10.07,10.07,0,0,0-8.44-11.43h0a10.07,10.07,0,0,0-11.43,8.44l-5.25,34.91a50.61,50.61,0,0,0-7.08,18.91c1.83-18.37,6.18-49.06,7-54.52,0.57-3.81,4-6.94,6.93-9.08A14,14,0,0,1,289.26,182a14.25,14.25,0,0,1,1.51,2.56c13.59-19.53,27.85-39.86,31.15-43.92,6.68-8.21,15.9-2.28,15.9-2.28a12,12,0,0,1,3.75,4.37l0.42-.6c-2.06-11-5.08-22.4-9.55-24.21-8.28-3.35-36.55,4.88-36.55,4.88s11.57-16.73-22.05-30.07S201.24,61.78,198,62.31l-79,13.34-15.48,33.62h0Zm-8,71.12h0A10.07,10.07,0,0,1,107,188.83l5.48,36.43a10,10,0,0,1-.37,4.56c3.33,6.72,6.11,15.73,4.49,24.22-3,15.52-23.12,29.05-23.12,29.05L65.8,280.7,42.29,251.78S5.92,205.09,4.42,200s0.38-12.56,4.13-13.13S15.1,186,15.1,186,4.15,173.17,8,169.09s4.31-9.75,8.44-9.75-8.25-20.63-3.75-21.75S31,144,33.48,146.78s6-11.44,12.56-6.56c4.26,3.16,26.4,36.34,42.17,58.73l-1.07-7.13A10.07,10.07,0,0,1,95.58,180.39Z"/><path class="cls-2" d="M157.48,128.88c5.14-1.13,10.85,5,12.75,13.59s-0.74,16.55-5.89,17.68-10.85-5-12.75-13.59,0.74-16.55,5.89-17.68h0Zm1.25,5.73c-2.16.48-3.34,3.43-2.65,6.59s3,5.35,5.17,4.88,3.35-3.43,2.65-6.59S160.9,134.13,158.73,134.61Z"/><path class="cls-2" d="M220.69,128.88c-5.14-1.13-10.85,5-12.75,13.59s0.74,16.55,5.89,17.68,10.85-5,12.75-13.59-0.74-16.55-5.89-17.68h0Zm-1.26,5.73c2.16,0.48,3.35,3.43,2.65,6.59s-3,5.35-5.17,4.88-3.34-3.43-2.65-6.59S217.28,134.13,219.44,134.61Z"/><path class="cls-2" d="M64.69,162.6L64.61,165c-5.9-8.46-11.17-15.88-14.7-20.39,4-6,10.5-7.84,19.65-.18Z"/><path class="cls-2" d="M305.24,145.79l4.9,14.22c5.39-7.69,10.09-14.23,13.18-18.07-4-3.72-9.81-4-17.45,2.42C305,145,305.45,145.94,305.24,145.79Z"/><path class="cls-2" d="M188.62,213.36c25,0,45.35-.85,45.35,12.09s-20.3,25.6-45.35,25.6-45.35-12.65-45.35-25.6S163.57,213.36,188.62,213.36Z"/><path class="cls-3" d="M219,244.57c-3.56-10-15.66-17.35-30-17.35s-26.49,7.35-30,17.35c6.62,4.44,18,24.3,30.42,24.3S212.42,249,219,244.57Z"/><path class="cls-4" d="M180.67,228.07c2,0.94,6.7,3.08,8.35,17.24,0,0,2.33-16.29,8.47-17.21A41.23,41.23,0,0,0,180.67,228.07Z"/><path class="cls-4" d="M198.4,265.64c8.5-5.81,15.68-17.75,20.63-21.07-3,.21-4.28.47-6.57,1.83-18.9,23-27.25,23.25-45.7.68a17.59,17.59,0,0,0-7.82-2.51c5.18,3.47,12.79,16.37,21.82,21.83C186.75,270,192.63,269.59,198.4,265.64Z"/><path class="cls-5" d="M113,192.41c1.78,12.45,6.15,44.32,7,57.89,17.12,15.54,43.09,25.08,66.94,24,27.09-1.22,52.1-12,68.47-27.17a27.68,27.68,0,0,0,.47,5.22,30.33,30.33,0,0,0,4.63,10.74c-41.44,28-101.47,30.49-143.36,2.09a38.12,38.12,0,0,1-41.62,21.58c-13.47-2.46-17.43-8.91-26.23-18.18l-2.55-3.69L26,234.9l-0.13.09-2.11-3L2.17,201h0a12,12,0,0,1,2.61-16.47l0.95-.95H6.25a12,12,0,0,1,4-1.36l-5-7.1a12,12,0,0,1,1.38-15.41v-0.23l1.6-1.11a11.92,11.92,0,0,1,5.35-2.06l-3.37-4.83a12,12,0,0,1,2.86-16.65l0.12-.1a12,12,0,0,1,2.63-1.38q0.27-2,.66-4c5.83-18,15.69-26.66,31.72-28.64,15.31-1.88,17.66,5.89,28.05-2.53v0C89.5,67.71,121.57,56.57,150.89,47c21.63-7.09,64.43-16.39,48.22-47,13.77,3.85,29.54,30,26,43.82,18.11,6,35.11,12.11,49.45,23.25,21,16.29,23.8,25,27.4,38.86,20.49-14.54,48.76.64,56.54,24.64q0.52,2.71.83,5.24c-4.69-.54-16.8,5.91-20,8.87-2.51-8.67-7.86-15.4-12.82-17.4a20.07,20.07,0,0,0-19.41,2.22c-6.78,5-4.54,7.37-1.84,15.6-0.1.42,0,.78-0.09,0.69l4.9,14.22c-7,9.92-15,21.75-22.27,32.1l0-.3a10.07,10.07,0,0,0-8.44-11.43h0a10.07,10.07,0,0,0-11.43,8.44l-1.46,9.72c-5.18-4.6-9.88-7.21-12.09-10.4,42.52-66.81-17-111.82-51.11-85.47a53.35,53.35,0,0,0-7.18,6.47c-3.33,4.39-4.16,7.83-7.6,11.47a23.47,23.47,0,0,1-1.84-2.57c-0.57-.91-1-1.73-1.54-2.68-3.62-6.5-6.56-10.15-13.29-15.36-34.07-26.35-93.64,18.66-51.11,85.47-1.59,2.29-4.46,4.28-7.87,6.92h0Zm-75.3-54.29c1.84-1,9.64-4.68,15.49,2.52,1.75,2.15,6.56,8.85,12.72,17.57l3.7-13.82c1.54-7.64,4.12-11.45-1.66-16.15A20.08,20.08,0,0,0,48.48,126c-3.89,1.56-8,6-10.83,12.09h0Zm320.19,20a48.8,48.8,0,0,0,2-15.82c-2.06,6.43-6.51,15.38-3.79,15.38a3.67,3.67,0,0,1,1.78.43h0ZM154,186.12c26.09-16.32,44.92-16.23,69.32,0-8.33-26.17-61.53-25.59-69.32,0h0ZM103,189.42a6,6,0,0,0-12,1.8c2,13.11,3,26.08-2.17,38.91q-0.16-.63-0.26-1.29l-4.82-32-3-4.39h0L48,145.48h0a4.69,4.69,0,0,0-6.44-1.15h0a4.69,4.69,0,0,0-1.15,6.46L73.18,197.7l2.13,3-3.07,2.11-0.88.61-3,2.08-2.1-3L23.93,141.91a4.67,4.67,0,0,0-6.46-1.14h0a4.6,4.6,0,0,0-1.88,3,4.65,4.65,0,0,0,.74,3.47L58.6,207.77l2.13,3-3.05,2.11-0.77.53-3,2.09-2.11-3-32.8-47a4.67,4.67,0,0,0-6.46-1.14h0a4.59,4.59,0,0,0-1.88,3,4.67,4.67,0,0,0,.74,3.47l32.75,46.92,2.13,3-3.05,2.1-0.61.42-3,2.08-2.11-3-21.63-31a4.6,4.6,0,0,0-3-1.89,4.66,4.66,0,0,0-3.47.74h0a4.7,4.7,0,0,0-1.15,6.45h0l19.52,28,0.16-.11L30,227.64,42.84,246.2c0.12-.7,20.76-8.59,21.49-8.58,12.75,0.16-25.91,16.37.27,34.84,15.63,11,38.66,3.33,44.89-14.73C113,247.42,104.63,199.94,103,189.42Z"/><path class="cls-5" d="M280.07,176.44A14,14,0,0,0,269.65,179c-2.89,2.14-6.35,5.27-6.93,9.08C261.61,195.57,253.91,250,255,256a38.15,38.15,0,0,0,44.51,30.74c13.47-2.46,17.43-8.91,26.23-18.18l2.55-3.69,20.71-30,0.13,0.09,2.11-3,21.63-31h0a12,12,0,0,0-2.61-16.47l-0.95-.95h-0.52a12,12,0,0,0-4-1.36l5-7.1a12,12,0,0,0-1.38-15.41v-0.23l-1.6-1.11a11.92,11.92,0,0,0-5.35-2.06l3.37-4.83a12,12,0,0,0-2.86-16.65l-0.12-.1a12,12,0,0,0-16.74,3l-3.52,5a12,12,0,0,0-3.75-4.37s-9.22-5.93-15.9,2.28c-3.3,4.06-17.56,24.39-31.15,43.92a14.25,14.25,0,0,0-1.51-2.56,14,14,0,0,0-9.18-5.55h0Zm-8.07,13a6,6,0,0,1,12,1.8c-2,13.11-3,26.08,2.17,38.91q0.16-.63.26-1.29l4.82-32,3-4.39h0l32.78-47h0a4.69,4.69,0,0,1,6.44-1.15h0a4.69,4.69,0,0,1,1.15,6.46L301.87,197.7l-2.13,3,3.07,2.11,0.88,0.61,3,2.08,2.1-3,42.32-60.63a4.67,4.67,0,0,1,6.46-1.14h0a4.6,4.6,0,0,1,1.88,3,4.65,4.65,0,0,1-.74,3.47l-42.27,60.56-2.13,3,3.05,2.11,0.77,0.53,3,2.09,2.11-3,32.8-47a4.67,4.67,0,0,1,6.46-1.14h0a4.59,4.59,0,0,1,1.88,3,4.67,4.67,0,0,1-.74,3.47l-32.75,46.92-2.13,3,3.05,2.1,0.61,0.42,3,2.08,2.11-3,21.63-31a4.6,4.6,0,0,1,3-1.89,4.66,4.66,0,0,1,3.47.74h0a4.7,4.7,0,0,1,1.15,6.45h0l-19.52,28-0.16-.11L345,227.64,332.22,246.2c-0.12-.7-20.76-8.59-21.49-8.58-12.75.16,25.91,16.37-.27,34.84-15.63,11-38.66,3.33-44.89-14.73C262,247.42,270.43,199.94,272,189.42Z"/></svg>