<svg id="Layer_1" data-name="Layer 1" xmlns="http://www.w3.org/2000/svg" viewBox="0 0 344.69 285.32"><defs><style>.cls-1{fill:#fff;}.cls-1,.cls-2,.cls-3,.cls-4{fill-rule:evenodd;}.cls-2{fill:#5a3c29;}.cls-3{fill:#bc6837;}.cls-4{fill:#f48d95;}</style></defs><title>peekaboo</title><path class="cls-1" d="M88.4,109.27s-10.73,16.68-23.61,32.67l11.76-27.12-65,3.48,4.64,53.63,63.48,65.83,7.12,4.19s46.41,37.57,69.35,37,78.57-13.49,104.39-38.23,40.23-13.54,45.57-30.61c1-3.13-1.5-7.6-1.53-10.39-0.09-6.79,6.67-17.23,15.45-18.41,7.3-1,18.54-21.43,10.62-17.09-1.24.68-4.34-42.64-13.43-46.32-8.28-3.35-36.55,4.88-36.55,4.88s11.57-16.73-22.05-30.07-72.58-30.95-75.78-30.42l-79,13.34Z"/><path class="cls-2" d="M142.3,124.56c5.14-1.13,10.85,5,12.75,13.59s-0.74,16.55-5.89,17.68-10.85-5-12.75-13.59,0.74-16.55,5.89-17.68h0Zm1.25,5.73c-2.16.48-3.34,3.43-2.65,6.59s3,5.35,5.17,4.88,3.35-3.43,2.65-6.59S145.71,129.81,143.55,130.29Z"/><path class="cls-2" d="M205.51,124.56c-5.14-1.13-10.85,5-12.75,13.59s0.74,16.55,5.89,17.68,10.85-5,12.75-13.59-0.74-16.55-5.89-17.68h0Zm-1.26,5.73c2.16,0.48,3.35,3.43,2.65,6.59s-3,5.35-5.17,4.88-3.34-3.43-2.65-6.59S202.1,129.81,204.25,130.29Z"/><path class="cls-3" d="M290.32,145.65C287.54,137,285,134.6,292,129.51a20.07,20.07,0,0,1,19.41-2.22c11.59,4.66,25.31,35.22,0,55.94,9-10.1,2.52-57.31-21.06-37.58h0ZM138.78,177.48c26.09-16.32,44.92-16.23,69.32,0-8.33-26.17-61.53-25.59-69.32,0h0Zm159.08,3.31-14.45-20.92h0l-32.78-47h0a4.69,4.69,0,0,0-6.44-1.15h0a4.69,4.69,0,0,0-1.15,6.46l32.75,46.92,2.13,3-3.07,2.11-0.88.61-3,2.08-2.1-3-42.32-60.63a4.67,4.67,0,0,0-6.46-1.14h0a4.58,4.58,0,0,0-1.88,3,4.63,4.63,0,0,0,.73,3.47l42.28,60.56,2.13,3-3.06,2.11-0.77.53-3,2.09-2.11-3-32.8-47a4.67,4.67,0,0,0-6.46-1.14h0a4.6,4.6,0,0,0-1.88,3,4.67,4.67,0,0,0,.74,3.47l32.75,46.92,2.13,3-3.05,2.1-0.6.42-3,2.08-2.1-3-21.63-31a4.61,4.61,0,0,0-3-1.89,4.65,4.65,0,0,0-3.47.74h0a4.59,4.59,0,0,0-1.89,3,4.65,4.65,0,0,0,.73,3.47h0l19.52,28,0.16-.11,2.11,3.06,12.82,18.56a1.14,1.14,0,0,1,1.24-1.08c6.52,0.08,4.27-11.21,4.27-11.21s3.47,10.41,8,13.61c5.67,4,14.16-14.83,8.8-36.56,0,0,9.46,18.21,25.7,15.39,8-1.39,5.94-8.21,4.42-13h0Zm-251,0c-1.51,4.78-3.6,11.6,4.42,13,16.24,2.81,25.7-15.39,25.7-15.39C71.6,200.12,80.08,219,85.76,215c4.53-3.2,8-13.61,8-13.61S91.5,212.64,98,212.55a1.14,1.14,0,0,1,1.24,1.08l12.82-18.56,2.11-3.06,0.16,0.11,19.52-28h0a4.7,4.7,0,0,0-1.15-6.45h0a4.66,4.66,0,0,0-3.47-.74,4.6,4.6,0,0,0-3,1.89l-21.63,31-2.11,3-3-2.08-0.61-.42-3.05-2.1,2.13-3,32.75-46.92a4.67,4.67,0,0,0,.74-3.47,4.59,4.59,0,0,0-1.88-3h0a4.67,4.67,0,0,0-6.46,1.14l-32.8,47-2.11,3-3-2.09-0.77-.53-3.05-2.11,2.13-3,42.27-60.56a4.65,4.65,0,0,0,.74-3.47,4.6,4.6,0,0,0-1.88-3h0a4.68,4.68,0,0,0-6.46,1.14L75.85,170l-2.1,3-3-2.08-0.88-.61-3.07-2.11,2.13-3,32.76-46.92a4.69,4.69,0,0,0-1.15-6.46h0a4.69,4.69,0,0,0-6.44,1.15h0l-32.78,47h0L46.83,180.8h0Zm185.75-75.7a12,12,0,0,0-16.74-3l-0.12.1a12,12,0,0,0-2.86,16.65l3.37,4.83a11.9,11.9,0,0,0-5.35,2.06l-1.6,1.11v0.23a12,12,0,0,0-1.38,15.41l5,7.1a12,12,0,0,0-4,1.36h-0.52l-0.95.95a12,12,0,0,0-2.61,16.47h0l21.63,31,2.12,3,0.13-.09L251,234.67c-14.49,21.57-45.21,38.1-79.23,39.63-30.5,1.37-64.46-14.62-79-38.3l23.26-33.68,0.13,0.09,2.11-3,21.63-31h0a12,12,0,0,0-2.61-16.47l-0.95-.95h-0.52a12,12,0,0,0-4-1.36l5-7.1a12,12,0,0,0-1.38-15.41v-0.23l-1.6-1.11a11.92,11.92,0,0,0-5.35-2.06l3.37-4.83A12,12,0,0,0,129,102.22l-0.12-.1a12,12,0,0,0-16.74,3l-3.52,5a12,12,0,0,0-3.75-4.36c13.4-13.91,34.74-19,51.9-5.77,6.73,5.21,9.68,8.86,13.29,15.36,0.53,0.94,1,1.77,1.54,2.68a23.45,23.45,0,0,0,1.84,2.57c4.23-4.48,4.51-8.64,10.35-14.66,16.33-16.84,38.73-16.65,53.1-5.47a57.2,57.2,0,0,1,4.82,4.19,12.1,12.1,0,0,0-1.75,1h0a12,12,0,0,0-3.85,4.44l-3.52-5h0Zm82,86.87c20.11-15.83,34.75-30.07,28.77-61.39-7.78-24-36-39.18-56.54-24.64-3.6-13.9-6.44-22.57-27.4-38.86-14.34-11.14-31.35-17.29-49.45-23.25,3.52-13.77-12.25-40-26-43.82,16.21,30.57-26.59,39.88-48.22,47-29.32,9.61-61.38,20.75-74.58,51.23v0c-10.4,8.42-12.74.65-28.05,2.53-16,2-25.9,10.66-31.72,28.64-6,31.62,8.94,45.82,29.35,61.84l-2.53,3.66A38.3,38.3,0,0,0,83,247c4.85,6.05,10,11.63,15.46,15.71,43.76,32.35,109.58,29,152.2-3.36a137.13,137.13,0,0,0,12.83-11.12,38.3,38.3,0,0,0,53.08-53.39l-2-2.83h0ZM54.37,144.38C30.79,124.65,24.92,168.25,33.31,182,8,161.24,21.71,130.68,33.3,126a20.08,20.08,0,0,1,19.42,2.21,21.25,21.25,0,0,1,2.23,1.85c0,3.61.1,7.39,0.43,11.35C55.06,142.34,54.72,143.31,54.37,144.38Z"/><path class="cls-2" d="M173.81,250.87c20.22,0,36.62-4.91,36.62-17.85S194,209.58,173.81,209.58,137.19,220.07,137.19,233,153.59,250.87,173.81,250.87Z"/><path class="cls-4" d="M203.86,244.57c-3.56-10-15.66-17.35-30-17.35s-26.49,7.35-30,17.35c6.62,4.44,17.61,6.3,30,6.3S197.24,249,203.86,244.57Z"/></svg>