<?xml version="1.0" standalone="no"?>
<!DOCTYPE svg PUBLIC "-//W3C//DTD SVG 20010904//EN"
 "http://www.w3.org/TR/2001/REC-SVG-20010904/DTD/svg10.dtd">
<svg version="1.0" xmlns="http://www.w3.org/2000/svg"
 width="346.000000pt" height="346.000000pt" viewBox="0 0 346.000000 346.000000"
 preserveAspectRatio="xMidYMid meet">
<metadata>
Created by potrace 1.11, written by Peter Selinger 2001-2013
</metadata>
<g transform="translate(0.000000,346.000000) scale(0.100000,-0.100000)"
fill="#000000" stroke="none">
<path d="M1854 3139 c40 -124 30 -179 -43 -249 -69 -67 -142 -101 -422 -194
-140 -46 -294 -103 -344 -126 -188 -88 -316 -194 -394 -328 -59 -101 -71 -108
-184 -96 -230 24 -361 -52 -436 -251 -18 -46 -23 -82 -23 -155 -1 -185 63
-299 260 -460 l42 -35 -23 -35 c-45 -67 -62 -129 -62 -225 0 -80 4 -97 31
-155 72 -150 203 -227 369 -218 68 4 95 10 146 36 l63 31 77 -77 c114 -115
284 -209 467 -258 175 -46 457 -53 612 -14 19 5 46 11 60 13 51 9 187 59 264
98 98 48 203 118 272 181 l52 48 53 -24 c67 -31 98 -37 174 -36 148 1 272 82
339 220 28 59 31 74 31 161 0 90 -2 99 -38 172 l-39 78 29 21 c69 52 190 186
217 242 46 91 59 193 43 313 -18 127 -148 275 -279 318 -78 26 -173 23 -239
-7 l-55 -25 -19 65 c-35 124 -137 241 -315 362 -76 52 -180 101 -320 150
l-105 38 -6 58 c-8 73 -19 107 -59 182 -40 76 -107 151 -160 181 l-43 24 7
-24z m-348 -944 c70 -34 159 -120 200 -192 16 -29 31 -53 34 -53 3 0 27 33 53
73 142 216 404 269 589 120 l36 -30 -29 -27 c-16 -15 -29 -23 -29 -18 0 5 -15
25 -34 45 -77 82 -195 45 -213 -67 -4 -29 0 -44 21 -77 15 -22 26 -42 24 -43
-51 -33 -61 -37 -71 -27 -6 6 -26 11 -43 11 -80 0 -147 -174 -102 -267 17 -35
54 -54 84 -43 22 9 23 8 13 -16 -5 -14 -8 -40 -6 -58 4 -32 12 -44 227 -351
263 -375 255 -361 237 -388 -33 -51 -130 -140 -209 -191 -217 -140 -495 -206
-733 -172 -177 25 -405 136 -526 256 -41 40 -91 111 -86 122 4 11 149 220 322
467 175 248 181 260 150 325 -11 22 -32 44 -52 55 l-35 17 24 29 25 28 7 -27
c10 -41 45 -84 76 -95 110 -38 142 177 43 282 -32 33 -77 36 -108 7 l-22 -20
-18 20 c-10 11 -24 20 -31 20 -24 0 -25 19 -3 49 29 40 33 100 8 140 -20 33
-71 61 -109 61 -33 0 -77 -27 -97 -60 -19 -33 -34 -38 -52 -16 -16 20 33 66
106 102 75 37 107 44 194 40 60 -2 89 -9 135 -31z m-248 -127 c7 -7 12 -19 12
-28 0 -10 -101 -162 -225 -340 l-226 -324 28 -22 c36 -30 49 -30 65 -1 15 27
230 338 298 430 38 51 50 61 70 58 27 -3 40 -17 40 -41 0 -8 -57 -96 -126
-195 -178 -253 -224 -321 -224 -332 0 -14 61 -46 69 -37 5 5 55 77 112 159
121 175 141 197 166 188 21 -8 33 -23 33 -43 0 -12 -149 -235 -204 -303 -8
-11 -43 -61 -78 -113 -38 -57 -70 -94 -80 -94 -21 0 -50 41 -48 67 4 38 -1 36
-21 -7 -47 -103 -86 -110 -127 -21 -22 46 -27 72 -28 150 -1 51 2 107 7 124
l9 31 -33 -39 c-48 -60 -63 -72 -104 -94 -96 -49 -188 -21 -178 53 5 42 18 67
88 166 29 41 130 186 225 322 95 137 182 253 192 258 15 8 24 6 40 -10 11 -11
20 -25 20 -31 0 -10 -62 -102 -282 -416 -38 -52 -68 -101 -68 -107 0 -10 49
-46 63 -46 3 0 103 141 223 313 119 171 224 318 232 325 20 15 45 15 60 0z
m1005 -3 c9 -8 113 -154 232 -325 119 -170 218 -310 221 -310 3 0 20 10 38 23
l34 22 -108 155 c-60 85 -140 201 -179 256 -39 56 -71 109 -71 118 0 8 11 23
25 32 33 21 37 18 128 -113 39 -57 107 -154 151 -215 219 -310 263 -382 261
-421 -2 -46 -13 -57 -63 -67 -70 -13 -153 30 -221 113 -19 23 -31 33 -27 22
15 -39 18 -153 6 -211 -14 -68 -43 -129 -64 -137 -23 -9 -62 28 -82 78 -21 51
-33 58 -28 18 4 -34 -20 -73 -44 -73 -10 0 -44 40 -87 103 -38 56 -73 107 -77
112 -21 26 -80 109 -137 192 -50 72 -62 97 -57 116 7 29 30 41 54 28 10 -5 69
-83 131 -173 63 -89 117 -167 122 -172 8 -9 69 23 69 37 0 9 -179 272 -297
436 -29 41 -53 82 -53 92 0 25 39 50 60 39 9 -5 95 -121 191 -259 96 -138 179
-251 184 -251 6 0 23 10 38 23 l28 22 -115 165 c-63 91 -161 230 -217 310
-115 164 -129 191 -110 214 17 20 45 20 64 1z m-1782 -167 c57 -17 73 -40 75
-106 2 -71 -2 -77 -33 -56 -96 62 -177 15 -209 -123 -14 -62 -11 -194 6 -238
l11 -30 -30 29 c-16 15 -44 56 -62 90 -30 54 -34 71 -36 146 -2 101 18 164 74
230 57 67 118 84 204 58z m2652 -26 c42 -24 93 -93 109 -145 7 -23 13 -80 12
-127 0 -96 -20 -150 -80 -217 l-34 -38 7 30 c5 17 8 73 7 125 0 81 -4 104 -27
152 -26 59 -71 98 -112 98 -12 0 -38 -9 -60 -20 -22 -11 -41 -20 -42 -20 -5 0
-24 52 -29 77 -6 30 40 80 91 98 49 18 115 13 158 -13z m-1649 -53 c21 -51 5
-86 -34 -74 -28 9 -43 56 -28 88 14 28 47 21 62 -14z m579 -14 c-1 -22 -2 -43
-2 -46 -2 -11 -30 -19 -46 -13 -18 7 -20 56 -4 85 6 13 18 19 32 17 19 -3 22
-9 20 -43z m54 -147 c-22 -14 -28 -8 -16 13 9 17 13 19 20 8 5 -8 3 -16 -4
-21z"/>
<path d="M1628 1564 c-109 -25 -182 -75 -220 -148 l-20 -39 67 38 c204 114
373 114 576 -1 46 -25 56 -28 52 -14 -7 28 -62 89 -102 114 -87 55 -240 76
-353 50z"/>
<path d="M1728 1066 c-1 -2 -25 -6 -53 -9 -218 -25 -353 -175 -273 -305 40
-65 166 -103 337 -103 199 1 315 38 358 114 17 30 16 90 -1 131 -33 80 -153
149 -278 161 -35 4 -68 8 -75 10 -6 2 -13 2 -15 1z m115 -197 c61 -22 109 -59
135 -102 l20 -34 -29 -17 c-82 -49 -328 -54 -434 -10 -48 20 -50 30 -20 75 66
94 207 133 328 88z"/>
</g>
</svg>
