<?xml version="1.0" standalone="no"?>
<!DOCTYPE svg PUBLIC "-//W3C//DTD SVG 20010904//EN"
 "http://www.w3.org/TR/2001/REC-SVG-20010904/DTD/svg10.dtd">
<svg version="1.0" xmlns="http://www.w3.org/2000/svg"
 width="346.000000pt" height="346.000000pt" viewBox="0 0 346.000000 346.000000"
 preserveAspectRatio="xMidYMid meet">
<metadata>
Created by potrace 1.11, written by Peter Selinger 2001-2013
</metadata>
<g transform="translate(0.000000,346.000000) scale(0.100000,-0.100000)"
fill="#000000" stroke="none">
<path d="M1866 3113 c18 -52 17 -118 -2 -159 -23 -49 -92 -108 -174 -149 -40
-20 -180 -72 -311 -115 -313 -103 -454 -170 -587 -279 -50 -41 -125 -137 -155
-197 -32 -68 -58 -77 -191 -68 -100 6 -122 4 -184 -15 -96 -29 -160 -87 -209
-189 -33 -69 -37 -86 -41 -178 -9 -197 56 -319 252 -480 l49 -41 -27 -39 c-96
-140 -81 -341 35 -469 120 -130 300 -161 464 -79 l50 25 85 -83 c292 -284 804
-373 1248 -216 158 55 280 126 409 235 l64 54 42 -20 c67 -32 132 -44 208 -39
236 17 400 258 331 484 -12 38 -33 85 -46 106 l-25 36 55 43 c84 65 161 156
202 238 37 74 37 76 37 201 0 121 -1 128 -32 191 -40 81 -130 169 -210 207
-50 23 -71 27 -148 27 -73 0 -98 -4 -134 -22 -25 -12 -46 -21 -47 -20 -1 1
-11 32 -24 70 -67 206 -304 394 -638 507 l-102 35 0 41 c0 46 -23 132 -50 184
-30 59 -98 143 -143 177 -57 44 -68 43 -51 -4z m-357 -917 c71 -37 142 -104
192 -184 l41 -65 49 76 c118 185 331 256 511 169 34 -16 76 -41 91 -54 l28
-23 -29 -28 -30 -28 -21 34 c-58 94 -191 80 -222 -22 -11 -37 -3 -65 38 -143
7 -12 -60 -39 -71 -28 -5 5 -24 10 -41 10 -37 0 -76 -36 -99 -92 -19 -45 -21
-143 -3 -178 17 -33 54 -51 83 -40 22 9 23 8 13 -18 -6 -15 -8 -41 -4 -59 3
-19 95 -159 225 -345 120 -172 227 -327 237 -345 l17 -32 -51 -58 c-147 -169
-397 -290 -668 -323 -231 -29 -497 46 -690 193 -78 59 -168 164 -162 187 4 14
87 136 355 518 72 103 124 187 128 208 8 41 -18 89 -63 120 -31 21 -31 21 -14
48 l18 27 24 -48 c28 -54 77 -87 112 -74 80 30 80 200 0 284 -33 33 -81 37
-108 7 -18 -20 -19 -20 -39 -2 -12 11 -29 22 -39 26 -10 3 -17 9 -15 14 44 85
49 103 38 141 -28 104 -163 118 -221 24 l-22 -35 -20 21 c-25 25 -18 36 55 83
84 53 141 69 238 65 69 -3 95 -9 139 -31z m-251 -128 c7 -7 12 -20 12 -30 0
-11 -98 -159 -218 -331 -120 -172 -221 -317 -225 -324 -4 -7 7 -20 28 -33 20
-12 37 -21 39 -19 1 2 79 115 173 250 94 135 178 251 187 258 21 18 55 5 62
-24 7 -29 24 -1 -180 -294 l-170 -244 30 -23 c16 -13 31 -24 34 -24 3 0 56 74
119 165 63 91 123 173 133 182 25 22 68 4 68 -30 0 -15 -66 -119 -171 -268
-94 -134 -174 -248 -178 -252 -4 -4 -20 2 -34 13 -19 15 -27 31 -27 53 l-1 32
-21 -40 c-25 -49 -57 -85 -75 -85 -20 0 -60 69 -73 129 -8 32 -11 89 -8 143
l6 89 -24 -35 c-40 -58 -109 -99 -176 -104 -43 -3 -65 0 -84 13 -44 29 -31 83
52 201 234 338 419 600 428 606 29 20 71 -11 64 -46 -3 -12 -80 -129 -173
-261 -92 -132 -169 -245 -172 -251 -6 -15 56 -59 67 -48 4 5 107 152 229 327
229 327 242 342 279 305z m1216 -295 c118 -170 221 -317 229 -327 14 -19 15
-19 46 3 18 13 30 28 28 35 -3 6 -82 121 -176 256 -94 134 -171 252 -171 261
0 34 40 59 66 41 10 -6 135 -183 392 -553 113 -164 131 -210 93 -248 -16 -16
-33 -21 -71 -21 -69 0 -112 20 -168 78 l-48 50 4 -85 c3 -61 0 -102 -13 -148
-16 -59 -51 -115 -73 -115 -14 0 -50 43 -72 86 -16 32 -19 35 -20 16 0 -31
-16 -59 -39 -72 -17 -9 -28 2 -84 83 -35 50 -114 164 -176 251 -65 94 -111
169 -111 183 0 31 42 52 65 33 8 -7 68 -89 133 -181 64 -93 119 -169 122 -169
3 0 18 11 34 24 l30 23 -170 244 c-203 291 -187 265 -180 294 7 29 41 42 63
24 8 -7 92 -124 186 -259 94 -135 172 -247 173 -249 2 -2 19 7 39 19 21 13 32
26 28 33 -4 7 -105 152 -225 324 -120 171 -218 320 -218 330 0 26 19 43 47 43
18 0 63 -58 237 -307z m-1987 126 c55 -21 73 -47 73 -109 0 -31 -3 -59 -6 -63
-4 -3 -24 3 -45 13 -111 57 -181 -10 -204 -192 -6 -49 3 -130 20 -183 11 -35
-72 63 -97 113 -66 136 -9 361 105 412 47 22 111 26 154 9z m2652 -27 c142
-105 163 -352 40 -484 -25 -26 -38 -35 -34 -23 14 42 17 143 6 199 -15 81 -47
144 -85 167 -40 24 -60 24 -113 -2 -24 -12 -46 -20 -48 -17 -2 2 -10 25 -16
51 -12 44 -12 48 11 73 41 44 97 65 159 60 31 -3 66 -13 80 -24z m-1659 -41
c19 -37 7 -91 -21 -91 -28 0 -54 82 -32 103 13 14 43 7 53 -12z m583 -26 c-1
-22 -2 -43 -2 -46 -2 -14 -34 -19 -47 -8 -31 26 -8 102 29 97 19 -3 22 -9 20
-43z m54 -147 c-22 -14 -28 -8 -16 13 9 17 13 19 20 8 5 -8 3 -16 -4 -21z"/>
<path d="M1660 1570 c-64 -10 -142 -41 -187 -75 -30 -23 -79 -92 -72 -100 2
-2 44 16 93 40 104 51 159 65 262 65 86 0 166 -23 262 -76 34 -19 62 -31 62
-26 0 22 -50 80 -94 110 -81 54 -213 79 -326 62z"/>
<path d="M1602 1045 c-29 -8 -67 -22 -85 -31 -40 -20 -104 -81 -123 -116 -20
-38 -18 -107 6 -145 21 -35 64 -66 54 -39 -9 23 80 111 139 137 43 20 68 24
152 24 84 0 109 -4 153 -24 57 -26 146 -115 138 -138 -10 -25 44 18 60 48 18
36 18 102 -1 138 -23 45 -102 108 -164 132 -73 29 -250 36 -329 14z"/>
<path d="M1558 663 c7 -3 16 -2 19 1 4 3 -2 6 -13 5 -11 0 -14 -3 -6 -6z"/>
<path d="M1918 663 c7 -3 16 -2 19 1 4 3 -2 6 -13 5 -11 0 -14 -3 -6 -6z"/>
<path d="M1613 653 c9 -2 23 -2 30 0 6 3 -1 5 -18 5 -16 0 -22 -2 -12 -5z"/>
<path d="M1853 653 c9 -2 23 -2 30 0 6 3 -1 5 -18 5 -16 0 -22 -2 -12 -5z"/>
</g>
</svg>
