<?xml version="1.0" standalone="no"?>
<!DOCTYPE svg PUBLIC "-//W3C//DTD SVG 20010904//EN"
 "http://www.w3.org/TR/2001/REC-SVG-20010904/DTD/svg10.dtd">
<svg version="1.0" xmlns="http://www.w3.org/2000/svg"
 width="64.000000pt" height="64.000000pt" viewBox="0 0 64.000000 64.000000"
 preserveAspectRatio="xMidYMid meet">
<metadata>
Created by potrace 1.11, written by Peter Selinger 2001-2013
</metadata>
<g transform="translate(0.000000,64.000000) scale(0.100000,-0.100000)"
fill="#000000" stroke="none">
<path d="M343 585 c13 -29 -14 -54 -89 -82 -53 -19 -90 -40 -116 -66 -22 -21
-44 -37 -51 -35 -7 1 -24 -1 -38 -5 -51 -13 -59 -90 -15 -136 18 -19 23 -30
16 -41 -16 -25 -11 -50 16 -77 21 -20 32 -24 60 -20 18 3 36 1 39 -4 12 -19
84 -48 130 -53 55 -5 132 15 166 43 17 13 33 17 56 14 57 -10 100 56 68 106
-3 5 1 13 9 18 23 13 45 63 40 92 -7 36 -36 63 -71 65 -20 1 -39 13 -61 38
-18 20 -50 43 -72 52 -22 9 -40 22 -40 30 0 8 -12 28 -26 43 -14 15 -24 24
-21 18z m-48 -191 c27 -25 28 -25 49 -6 24 22 66 35 66 21 0 -5 -4 -9 -10 -9
-5 0 -10 -9 -10 -20 0 -11 -4 -20 -10 -20 -5 0 -15 -10 -21 -22 -10 -18 -8
-24 7 -36 17 -13 16 -14 -17 -8 -20 4 -49 2 -65 -4 -25 -9 -27 -8 -11 4 24 18
22 57 -3 63 -11 3 -20 14 -20 24 0 11 -6 19 -12 19 -9 0 -8 4 2 10 21 14 24
13 55 -16z m-99 -70 c-20 -30 -35 -61 -33 -67 2 -6 18 11 36 37 18 26 35 45
38 42 6 -5 -36 -69 -49 -74 -4 -2 -8 -11 -8 -20 1 -12 12 -4 35 23 42 49 46
35 5 -19 -45 -59 -75 -58 -73 1 0 8 -6 7 -22 -3 -40 -26 -37 2 7 66 23 33 46
64 52 68 10 6 -4 -19 -41 -73 -15 -22 -17 -35 -5 -35 4 0 24 27 46 60 21 34
41 58 44 55 3 -2 -12 -30 -32 -61z m282 -26 c15 -27 32 -37 32 -20 0 4 -13 27
-30 52 -16 24 -27 46 -25 49 3 2 6 2 8 0 1 -2 22 -32 46 -67 44 -65 46 -96 3
-66 -24 16 -102 118 -102 131 1 10 45 -42 68 -79z m-380 44 c2 -7 -4 -12 -13
-12 -9 0 -19 -9 -22 -20 -6 -22 -23 -27 -23 -7 0 7 7 23 16 35 16 24 35 25 42
4z m492 -12 c6 -12 8 -31 4 -43 -7 -21 -8 -20 -14 8 -4 21 -12 31 -28 33 -26
4 -20 22 8 22 11 0 24 -9 30 -20z m-150 -32 c17 -24 36 -43 43 -43 7 0 12 -6
11 -12 -1 -7 -2 -20 -2 -28 -1 -9 -10 -14 -22 -12 -28 4 -35 14 -21 30 8 11 4
23 -19 55 -17 23 -30 44 -30 47 0 12 10 2 40 -37z m0 -63 c-1 -11 -27 20 -41
50 -6 11 1 7 15 -10 14 -16 26 -34 26 -40z m-70 35 c10 -5 35 -32 55 -60 32
-44 35 -53 24 -67 -22 -26 -91 -53 -138 -53 -44 0 -131 40 -131 60 0 18 69
107 92 118 29 14 74 15 98 2z"/>
<path d="M295 200 c-34 -13 -50 -37 -35 -55 7 -8 20 -15 29 -15 14 0 14 2 1
10 -13 9 -13 11 0 20 22 14 56 12 69 -4 10 -11 8 -15 -6 -20 -11 -3 -8 -4 7
-3 28 2 40 37 18 55 -19 15 -59 21 -83 12z"/>
</g>
</svg>
